<?xml version="1.0" encoding="UTF-8" standalone="no"?>
<!DOCTYPE svg PUBLIC "-//W3C//DTD SVG 1.1//EN"
 "http://www.w3.org/Graphics/SVG/1.1/DTD/svg11.dtd">
<!-- Generated by graphviz version 2.43.0 (0)
 -->
<!-- Title: dependency&#45;cruiser output Pages: 1 -->
<svg width="780pt" height="350pt"
 viewBox="0.00 0.00 779.50 350.00" xmlns="http://www.w3.org/2000/svg" xmlns:xlink="http://www.w3.org/1999/xlink">
<g id="graph0" class="graph" transform="scale(1 1) rotate(0) translate(4 346)">
<title>dependency&#45;cruiser output</title>
<polygon fill="white" stroke="transparent" points="-4,4 -4,-346 775.5,-346 775.5,4 -4,4"/>
<g id="clust1" class="cluster">
<title>cluster_src</title>
<path fill="#ffffff" stroke="black" stroke-width="2" d="M20,-8C20,-8 751.5,-8 751.5,-8 757.5,-8 763.5,-14 763.5,-20 763.5,-20 763.5,-322 763.5,-322 763.5,-328 757.5,-334 751.5,-334 751.5,-334 20,-334 20,-334 14,-334 8,-328 8,-322 8,-322 8,-20 8,-20 8,-14 14,-8 20,-8"/>
<text text-anchor="middle" x="385.75" y="-322.8" font-family="Helvetica,sans-Serif" font-weight="bold" font-size="9.00">src</text>
</g>
<g id="clust2" class="cluster">
<title>cluster_src/controllers</title>
<path fill="#ffffff" stroke="black" stroke-width="2" d="M313,-46C313,-46 395,-46 395,-46 401,-46 407,-52 407,-58 407,-58 407,-86 407,-86 407,-92 401,-98 395,-98 395,-98 313,-98 313,-98 307,-98 301,-92 301,-86 301,-86 301,-58 301,-58 301,-52 307,-46 313,-46"/>
<text text-anchor="middle" x="354" y="-86.8" font-family="Helvetica,sans-Serif" font-weight="bold" font-size="9.00">controllers</text>
</g>
<g id="clust3" class="cluster">
<title>cluster_src/jobs</title>
<path fill="#ffffff" stroke="black" stroke-width="2" d="M28,-153C28,-153 118,-153 118,-153 124,-153 130,-159 130,-165 130,-165 130,-223 130,-223 130,-229 124,-235 118,-235 118,-235 28,-235 28,-235 22,-235 16,-229 16,-223 16,-223 16,-165 16,-165 16,-159 22,-153 28,-153"/>
<text text-anchor="middle" x="73" y="-223.8" font-family="Helvetica,sans-Serif" font-weight="bold" font-size="9.00">jobs</text>
</g>
<g id="clust4" class="cluster">
<title>cluster_src/models</title>
<path fill="#ffffff" stroke="black" stroke-width="2" d="M650.5,-16C650.5,-16 743.5,-16 743.5,-16 749.5,-16 755.5,-22 755.5,-28 755.5,-28 755.5,-86 755.5,-86 755.5,-92 749.5,-98 743.5,-98 743.5,-98 650.5,-98 650.5,-98 644.5,-98 638.5,-92 638.5,-86 638.5,-86 638.5,-28 638.5,-28 638.5,-22 644.5,-16 650.5,-16"/>
<text text-anchor="middle" x="697" y="-86.8" font-family="Helvetica,sans-Serif" font-weight="bold" font-size="9.00">models</text>
</g>
<g id="clust5" class="cluster">
<title>cluster_src/routes</title>
<path fill="#ffffff" stroke="black" stroke-width="2" d="M212,-46C212,-46 281,-46 281,-46 287,-46 293,-52 293,-58 293,-58 293,-86 293,-86 293,-92 287,-98 281,-98 281,-98 212,-98 212,-98 206,-98 200,-92 200,-86 200,-86 200,-58 200,-58 200,-52 206,-46 212,-46"/>
<text text-anchor="middle" x="246.5" y="-86.8" font-family="Helvetica,sans-Serif" font-weight="bold" font-size="9.00">routes</text>
</g>
<g id="clust6" class="cluster">
<title>cluster_src/services</title>
<path fill="#ffffff" stroke="black" stroke-width="2" d="M427,-226C427,-226 618.5,-226 618.5,-226 624.5,-226 630.5,-232 630.5,-238 630.5,-238 630.5,-296 630.5,-296 630.5,-302 624.5,-308 618.5,-308 618.5,-308 427,-308 427,-308 421,-308 415,-302 415,-296 415,-296 415,-238 415,-238 415,-232 421,-226 427,-226"/>
<text text-anchor="middle" x="522.75" y="-296.8" font-family="Helvetica,sans-Serif" font-weight="bold" font-size="9.00">services</text>
</g>
<g id="clust7" class="cluster">
<title>cluster_src/utils</title>
<path fill="#ffffff" stroke="black" stroke-width="2" d="M528,-106C528,-106 720,-106 720,-106 726,-106 732,-112 732,-118 732,-118 732,-206 732,-206 732,-212 726,-218 720,-218 720,-218 528,-218 528,-218 522,-218 516,-212 516,-206 516,-206 516,-118 516,-118 516,-112 522,-106 528,-106"/>
<text text-anchor="middle" x="624" y="-206.8" font-family="Helvetica,sans-Serif" font-weight="bold" font-size="9.00">utils</text>
</g>
<!-- src/app.js -->
<g id="node1" class="node">
<title>src/app.js</title>
<g id="a_node1"><a xlink:href="src/app.js" xlink:title="app.js">
<path fill="#ffffcc" stroke="black" d="M186,-72C186,-72 144,-72 144,-72 141,-72 138,-69 138,-66 138,-66 138,-60 138,-60 138,-57 141,-54 144,-54 144,-54 186,-54 186,-54 189,-54 192,-57 192,-60 192,-60 192,-66 192,-66 192,-69 189,-72 186,-72"/>
<text text-anchor="start" x="152.5" y="-60.8" font-family="Helvetica,sans-Serif" font-size="9.00">app.js</text>
</a>
</g>
</g>
<!-- src/routes/wallet.routes.js -->
<g id="node2" class="node">
<title>src/routes/wallet.routes.js</title>
<g id="a_node2"><a xlink:href="src/routes/wallet.routes.js" xlink:title="wallet.routes.js">
<path fill="#ffffcc" stroke="black" d="M279,-72C279,-72 214,-72 214,-72 211,-72 208,-69 208,-66 208,-66 208,-60 208,-60 208,-57 211,-54 214,-54 214,-54 279,-54 279,-54 282,-54 285,-57 285,-60 285,-60 285,-66 285,-66 285,-69 282,-72 279,-72"/>
<text text-anchor="start" x="216" y="-60.8" font-family="Helvetica,sans-Serif" font-size="9.00">wallet.routes.js</text>
</a>
</g>
</g>
<!-- src/app.js&#45;&gt;src/routes/wallet.routes.js -->
<g id="edge1" class="edge">
<title>src/app.js&#45;&gt;src/routes/wallet.routes.js</title>
<path fill="none" stroke="#000000" stroke-width="2" stroke-opacity="0.200000" d="M192.03,-63C195.2,-63 198.5,-63 201.84,-63"/>
<polygon fill="#000000" fill-opacity="0.200000" stroke="#000000" stroke-width="2" stroke-opacity="0.200000" points="201.87,-65.1 207.87,-63 201.87,-60.9 201.87,-65.1"/>
</g>
<!-- src/controllers/wallet.controller.js -->
<g id="node3" class="node">
<title>src/controllers/wallet.controller.js</title>
<g id="a_node3"><a xlink:href="src/controllers/wallet.controller.js" xlink:title="wallet.controller.js">
<path fill="#ffffcc" stroke="black" d="M393,-72C393,-72 315,-72 315,-72 312,-72 309,-69 309,-66 309,-66 309,-60 309,-60 309,-57 312,-54 315,-54 315,-54 393,-54 393,-54 396,-54 399,-57 399,-60 399,-60 399,-66 399,-66 399,-69 396,-72 393,-72"/>
<text text-anchor="start" x="317" y="-60.8" font-family="Helvetica,sans-Serif" font-size="9.00">wallet.controller.js</text>
</a>
</g>
</g>
<!-- src/routes/wallet.routes.js&#45;&gt;src/controllers/wallet.controller.js -->
<g id="edge6" class="edge">
<title>src/routes/wallet.routes.js&#45;&gt;src/controllers/wallet.controller.js</title>
<path fill="none" stroke="#000000" stroke-width="2" stroke-opacity="0.200000" d="M285.29,-63C290.85,-63 296.65,-63 302.41,-63"/>
<polygon fill="#000000" fill-opacity="0.200000" stroke="#000000" stroke-width="2" stroke-opacity="0.200000" points="302.64,-65.1 308.64,-63 302.64,-60.9 302.64,-65.1"/>
</g>
<!-- src/models/ledgerEntry.model.js -->
<g id="node4" class="node">
<title>src/models/ledgerEntry.model.js</title>
<g id="a_node4"><a xlink:href="src/models/ledgerEntry.model.js" xlink:title="ledgerEntry.model.js">
<path fill="#ffffcc" stroke="black" d="M741.5,-72C741.5,-72 652.5,-72 652.5,-72 649.5,-72 646.5,-69 646.5,-66 646.5,-66 646.5,-60 646.5,-60 646.5,-57 649.5,-54 652.5,-54 652.5,-54 741.5,-54 741.5,-54 744.5,-54 747.5,-57 747.5,-60 747.5,-60 747.5,-66 747.5,-66 747.5,-69 744.5,-72 741.5,-72"/>
<text text-anchor="start" x="654.5" y="-60.8" font-family="Helvetica,sans-Serif" font-size="9.00">ledgerEntry.model.js</text>
</a>
</g>
</g>
<!-- src/controllers/wallet.controller.js&#45;&gt;src/models/ledgerEntry.model.js -->
<g id="edge2" class="edge">
<title>src/controllers/wallet.controller.js&#45;&gt;src/models/ledgerEntry.model.js</title>
<path fill="none" stroke="#000000" stroke-width="2" stroke-opacity="0.200000" d="M399.23,-63C460.86,-63 572.55,-63 639.94,-63"/>
<polygon fill="#000000" fill-opacity="0.200000" stroke="#000000" stroke-width="2" stroke-opacity="0.200000" points="640.32,-65.1 646.32,-63 640.32,-60.9 640.32,-65.1"/>
</g>
<!-- src/models/wallet.model.js -->
<g id="node5" class="node">
<title>src/models/wallet.model.js</title>
<g id="a_node5"><a xlink:href="src/models/wallet.model.js" xlink:title="wallet.model.js">
<path fill="#ffffcc" stroke="black" d="M729.5,-42C729.5,-42 664.5,-42 664.5,-42 661.5,-42 658.5,-39 658.5,-36 658.5,-36 658.5,-30 658.5,-30 658.5,-27 661.5,-24 664.5,-24 664.5,-24 729.5,-24 729.5,-24 732.5,-24 735.5,-27 735.5,-30 735.5,-30 735.5,-36 735.5,-36 735.5,-39 732.5,-42 729.5,-42"/>
<text text-anchor="start" x="666.5" y="-30.8" font-family="Helvetica,sans-Serif" font-size="9.00">wallet.model.js</text>
</a>
</g>
</g>
<!-- src/controllers/wallet.controller.js&#45;&gt;src/models/wallet.model.js -->
<g id="edge3" class="edge">
<title>src/controllers/wallet.controller.js&#45;&gt;src/models/wallet.model.js</title>
<path fill="none" stroke="#000000" stroke-width="2" stroke-opacity="0.200000" d="M399.23,-59.11C464.78,-53.34 586.99,-42.59 652.26,-36.85"/>
<polygon fill="#000000" fill-opacity="0.200000" stroke="#000000" stroke-width="2" stroke-opacity="0.200000" points="652.6,-38.93 658.4,-36.31 652.23,-34.74 652.6,-38.93"/>
</g>
<!-- src/services/ledger.service.js -->
<g id="node6" class="node">
<title>src/services/ledger.service.js</title>
<g id="a_node6"><a xlink:href="src/services/ledger.service.js" xlink:title="ledger.service.js">
<path fill="#ffffcc" stroke="black" d="M501,-282C501,-282 430,-282 430,-282 427,-282 424,-279 424,-276 424,-276 424,-270 424,-270 424,-267 427,-264 430,-264 430,-264 501,-264 501,-264 504,-264 507,-267 507,-270 507,-270 507,-276 507,-276 507,-279 504,-282 501,-282"/>
<text text-anchor="start" x="432" y="-270.8" font-family="Helvetica,sans-Serif" font-size="9.00">ledger.service.js</text>
</a>
</g>
</g>
<!-- src/controllers/wallet.controller.js&#45;&gt;src/services/ledger.service.js -->
<g id="edge4" class="edge">
<title>src/controllers/wallet.controller.js&#45;&gt;src/services/ledger.service.js</title>
<path fill="none" stroke="#000000" stroke-width="2" stroke-opacity="0.200000" d="M354.97,-72.27C355.39,-103.25 361.04,-204.27 415,-258 416.11,-259.11 417.31,-260.14 418.56,-261.09"/>
<polygon fill="#000000" fill-opacity="0.200000" stroke="#000000" stroke-width="2" stroke-opacity="0.200000" points="417.5,-262.9 423.68,-264.4 419.78,-259.38 417.5,-262.9"/>
</g>
<!-- src/services/ledger.service.js&#45;&gt;src/models/ledgerEntry.model.js -->
<g id="edge8" class="edge">
<title>src/services/ledger.service.js&#45;&gt;src/models/ledgerEntry.model.js</title>
<path fill="none" stroke="#000000" stroke-width="2" stroke-opacity="0.200000" d="M501.76,-263.98C504.13,-262.31 506.27,-260.34 508,-258 518.27,-244.14 504.51,-115.86 516,-103 533.18,-83.76 605.43,-90.06 630.5,-84 641.86,-81.25 654.11,-77.54 664.9,-73.99"/>
<polygon fill="#000000" fill-opacity="0.200000" stroke="#000000" stroke-width="2" stroke-opacity="0.200000" points="665.71,-75.94 670.74,-72.05 664.38,-71.95 665.71,-75.94"/>
</g>
<!-- src/services/ledger.service.js&#45;&gt;src/models/wallet.model.js -->
<g id="edge9" class="edge">
<title>src/services/ledger.service.js&#45;&gt;src/models/wallet.model.js</title>
<path fill="none" stroke="#000000" stroke-width="2" stroke-opacity="0.200000" d="M501.77,-263.99C504.14,-262.32 506.27,-260.34 508,-258 519.42,-242.51 504.17,-100.18 516,-85 524.52,-74.06 601.6,-54.61 652.09,-42.85"/>
<polygon fill="#000000" fill-opacity="0.200000" stroke="#000000" stroke-width="2" stroke-opacity="0.200000" points="652.74,-44.86 658.11,-41.46 651.79,-40.77 652.74,-44.86"/>
</g>
<!-- src/services/goldrush.service.js -->
<g id="node10" class="node">
<title>src/services/goldrush.service.js</title>
<g id="a_node10"><a xlink:href="src/services/goldrush.service.js" xlink:title="goldrush.service.js">
<path fill="#ffffcc" stroke="black" d="M616.5,-252C616.5,-252 535.5,-252 535.5,-252 532.5,-252 529.5,-249 529.5,-246 529.5,-246 529.5,-240 529.5,-240 529.5,-237 532.5,-234 535.5,-234 535.5,-234 616.5,-234 616.5,-234 619.5,-234 622.5,-237 622.5,-240 622.5,-240 622.5,-246 622.5,-246 622.5,-249 619.5,-252 616.5,-252"/>
<text text-anchor="start" x="537.5" y="-240.8" font-family="Helvetica,sans-Serif" font-size="9.00">goldrush.service.js</text>
</a>
</g>
</g>
<!-- src/services/ledger.service.js&#45;&gt;src/services/goldrush.service.js -->
<g id="edge13" class="edge">
<title>src/services/ledger.service.js&#45;&gt;src/services/goldrush.service.js</title>
<path fill="none" stroke="#000000" stroke-width="2" stroke-opacity="0.200000" d="M495.49,-263.98C502.21,-261.95 509.34,-259.85 516,-258 521.31,-256.52 526.9,-255.02 532.44,-253.57"/>
<polygon fill="#000000" fill-opacity="0.200000" stroke="#000000" stroke-width="2" stroke-opacity="0.200000" points="533.14,-255.56 538.42,-252.02 532.09,-251.5 533.14,-255.56"/>
</g>
<!-- src/utils/logger.js -->
<g id="node12" class="node">
<title>src/utils/logger.js</title>
<g id="a_node12"><a xlink:href="src/utils/logger.js" xlink:title="logger.js">
<path fill="#ffffcc" stroke="black" d="M597,-162C597,-162 555,-162 555,-162 552,-162 549,-159 549,-156 549,-156 549,-150 549,-150 549,-147 552,-144 555,-144 555,-144 597,-144 597,-144 600,-144 603,-147 603,-150 603,-150 603,-156 603,-156 603,-159 600,-162 597,-162"/>
<text text-anchor="start" x="558" y="-150.8" font-family="Helvetica,sans-Serif" font-size="9.00">logger.js</text>
</a>
</g>
</g>
<!-- src/services/ledger.service.js&#45;&gt;src/utils/logger.js -->
<g id="edge10" class="edge">
<title>src/services/ledger.service.js&#45;&gt;src/utils/logger.js</title>
<path fill="none" stroke="#000000" stroke-width="2" stroke-opacity="0.200000" d="M501.66,-263.91C504.06,-262.26 506.22,-260.31 508,-258 520.25,-242.09 502.98,-183.29 516,-168 522.64,-160.2 532.7,-156.16 542.65,-154.14"/>
<polygon fill="#000000" fill-opacity="0.200000" stroke="#000000" stroke-width="2" stroke-opacity="0.200000" points="543.21,-156.18 548.8,-153.14 542.54,-152.03 543.21,-156.18"/>
</g>
<!-- src/utils/retry.js -->
<g id="node13" class="node">
<title>src/utils/retry.js</title>
<g id="a_node13"><a xlink:href="src/utils/retry.js" xlink:title="retry.js">
<path fill="#ffffcc" stroke="black" d="M718,-147C718,-147 676,-147 676,-147 673,-147 670,-144 670,-141 670,-141 670,-135 670,-135 670,-132 673,-129 676,-129 676,-129 718,-129 718,-129 721,-129 724,-132 724,-135 724,-135 724,-141 724,-141 724,-144 721,-147 718,-147"/>
<text text-anchor="start" x="683" y="-135.8" font-family="Helvetica,sans-Serif" font-size="9.00">retry.js</text>
</a>
</g>
</g>
<!-- src/services/ledger.service.js&#45;&gt;src/utils/retry.js -->
<g id="edge11" class="edge">
<title>src/services/ledger.service.js&#45;&gt;src/utils/retry.js</title>
<path fill="none" stroke="#000000" stroke-width="2" stroke-opacity="0.200000" d="M500.85,-263.81C503.49,-262.18 505.93,-260.26 508,-258 517.33,-247.83 506.22,-237.74 516,-228 553.28,-190.88 594.22,-236.09 630.5,-198 642.4,-185.5 627.3,-173.13 638.5,-160 645.05,-152.32 654.59,-147.32 664.02,-144.06"/>
<polygon fill="#000000" fill-opacity="0.200000" stroke="#000000" stroke-width="2" stroke-opacity="0.200000" points="664.75,-146.03 669.85,-142.24 663.5,-142.02 664.75,-146.03"/>
</g>
<!-- src/utils/units.js -->
<g id="node14" class="node">
<title>src/utils/units.js</title>
<g id="a_node14"><a xlink:href="src/utils/units.js" xlink:title="units.js">
<path fill="#ffffcc" stroke="black" d="M718,-184C718,-184 676,-184 676,-184 673,-184 670,-181 670,-178 670,-178 670,-172 670,-172 670,-169 673,-166 676,-166 676,-166 718,-166 718,-166 721,-166 724,-169 724,-172 724,-172 724,-178 724,-178 724,-181 721,-184 718,-184"/>
<text text-anchor="start" x="682.5" y="-172.8" font-family="Helvetica,sans-Serif" font-size="9.00">units.js</text>
</a>
</g>
</g>
<!-- src/services/ledger.service.js&#45;&gt;src/utils/units.js -->
<g id="edge12" class="edge">
<title>src/services/ledger.service.js&#45;&gt;src/utils/units.js</title>
<path fill="none" stroke="#000000" stroke-width="2" stroke-opacity="0.200000" d="M487.04,-282.02C519.79,-294.92 584.79,-314.34 630.5,-288 667.45,-266.71 685.46,-215.72 692.42,-190.15"/>
<polygon fill="#000000" fill-opacity="0.200000" stroke="#000000" stroke-width="2" stroke-opacity="0.200000" points="694.48,-190.57 693.95,-184.23 690.41,-189.51 694.48,-190.57"/>
</g>
<!-- src/services/tatum.service.js -->
<g id="node15" class="node">
<title>src/services/tatum.service.js</title>
<g id="a_node15"><a xlink:href="src/services/tatum.service.js" xlink:title="tatum.service.js">
<path fill="#ffffcc" stroke="black" d="M610,-282C610,-282 542,-282 542,-282 539,-282 536,-279 536,-276 536,-276 536,-270 536,-270 536,-267 539,-264 542,-264 542,-264 610,-264 610,-264 613,-264 616,-267 616,-270 616,-270 616,-276 616,-276 616,-279 613,-282 610,-282"/>
<text text-anchor="start" x="544" y="-270.8" font-family="Helvetica,sans-Serif" font-size="9.00">tatum.service.js</text>
</a>
</g>
</g>
<!-- src/services/ledger.service.js&#45;&gt;src/services/tatum.service.js -->
<g id="edge14" class="edge">
<title>src/services/ledger.service.js&#45;&gt;src/services/tatum.service.js</title>
<path fill="none" stroke="#000000" stroke-width="2" stroke-opacity="0.200000" d="M507.21,-273C514.54,-273 522.22,-273 529.67,-273"/>
<polygon fill="#000000" fill-opacity="0.200000" stroke="#000000" stroke-width="2" stroke-opacity="0.200000" points="529.86,-275.1 535.86,-273 529.86,-270.9 529.86,-275.1"/>
</g>
<!-- src/index.js -->
<g id="node7" class="node">
<title>src/index.js</title>
<g id="a_node7"><a xlink:href="src/index.js" xlink:title="index.js">
<path fill="#ffffcc" stroke="black" d="M94,-72C94,-72 52,-72 52,-72 49,-72 46,-69 46,-66 46,-66 46,-60 46,-60 46,-57 49,-54 52,-54 52,-54 94,-54 94,-54 97,-54 100,-57 100,-60 100,-60 100,-66 100,-66 100,-69 97,-72 94,-72"/>
<text text-anchor="start" x="57" y="-60.8" font-family="Helvetica,sans-Serif" font-size="9.00">index.js</text>
</a>
</g>
</g>
<!-- src/index.js&#45;&gt;src/app.js -->
<g id="edge5" class="edge">
<title>src/index.js&#45;&gt;src/app.js</title>
<path fill="none" stroke="#000000" stroke-width="2" stroke-opacity="0.200000" d="M100.03,-63C109.83,-63 121.11,-63 131.43,-63"/>
<polygon fill="#000000" fill-opacity="0.200000" stroke="#000000" stroke-width="2" stroke-opacity="0.200000" points="131.72,-65.1 137.71,-63 131.71,-60.9 131.72,-65.1"/>
</g>
<!-- src/jobs/historicalSync.job.js -->
<g id="node8" class="node">
<title>src/jobs/historicalSync.job.js</title>
<g id="a_node8"><a xlink:href="src/jobs/historicalSync.job.js" xlink:title="no&#45;orphans">
<path fill="#ccffcc" stroke="orange" d="M116,-209C116,-209 30,-209 30,-209 27,-209 24,-206 24,-203 24,-203 24,-197 24,-197 24,-194 27,-191 30,-191 30,-191 116,-191 116,-191 119,-191 122,-194 122,-197 122,-197 122,-203 122,-203 122,-206 119,-209 116,-209"/>
<text text-anchor="start" x="32" y="-197.8" font-family="Helvetica,sans-Serif" font-size="9.00" fill="orange">historicalSync.job.js</text>
</a>
</g>
</g>
<!-- src/jobs/liveSync.job.js -->
<g id="node9" class="node">
<title>src/jobs/liveSync.job.js</title>
<g id="a_node9"><a xlink:href="src/jobs/liveSync.job.js" xlink:title="no&#45;orphans">
<path fill="#ccffcc" stroke="orange" d="M104.5,-179C104.5,-179 41.5,-179 41.5,-179 38.5,-179 35.5,-176 35.5,-173 35.5,-173 35.5,-167 35.5,-167 35.5,-164 38.5,-161 41.5,-161 41.5,-161 104.5,-161 104.5,-161 107.5,-161 110.5,-164 110.5,-167 110.5,-167 110.5,-173 110.5,-173 110.5,-176 107.5,-179 104.5,-179"/>
<text text-anchor="start" x="43.5" y="-167.8" font-family="Helvetica,sans-Serif" font-size="9.00" fill="orange">liveSync.job.js</text>
</a>
</g>
</g>
<!-- src/utils/rateLimiter.js -->
<g id="node11" class="node">
<title>src/utils/rateLimiter.js</title>
<g id="a_node11"><a xlink:href="src/utils/rateLimiter.js" xlink:title="rateLimiter.js">
<path fill="#ffffcc" stroke="black" d="M604.5,-192C604.5,-192 547.5,-192 547.5,-192 544.5,-192 541.5,-189 541.5,-186 541.5,-186 541.5,-180 541.5,-180 541.5,-177 544.5,-174 547.5,-174 547.5,-174 604.5,-174 604.5,-174 607.5,-174 610.5,-177 610.5,-180 610.5,-180 610.5,-186 610.5,-186 610.5,-189 607.5,-192 604.5,-192"/>
<text text-anchor="start" x="549.5" y="-180.8" font-family="Helvetica,sans-Serif" font-size="9.00">rateLimiter.js</text>
</a>
</g>
</g>
<!-- src/services/goldrush.service.js&#45;&gt;src/utils/rateLimiter.js -->
<g id="edge7" class="edge">
<title>src/services/goldrush.service.js&#45;&gt;src/utils/rateLimiter.js</title>
<path fill="none" stroke="#000000" stroke-width="2" stroke-opacity="0.200000" d="M576,-233.9C576,-222.12 576,-210.33 576,-198.54"/>
<polygon fill="#000000" fill-opacity="0.200000" stroke="#000000" stroke-width="2" stroke-opacity="0.200000" points="578.1,-198.37 576,-192.38 573.9,-198.38 578.1,-198.37"/>
</g>
<!-- src/services/tatum.service.js&#45;&gt;src/utils/rateLimiter.js -->
<g id="edge15" class="edge">
<title>src/services/tatum.service.js&#45;&gt;src/utils/rateLimiter.js</title>
<path fill="none" stroke="#000000" stroke-width="2" stroke-opacity="0.200000" d="M535.72,-271.15C524.86,-268.27 515.22,-262.63 512,-252 508.23,-239.55 506.8,-232.2 516,-223 526.98,-212.02 541.4,-202.29 553.35,-195.18"/>
<polygon fill="#000000" fill-opacity="0.200000" stroke="#000000" stroke-width="2" stroke-opacity="0.200000" points="554.52,-196.93 558.65,-192.1 552.41,-193.3 554.52,-196.93"/>
</g>
<!-- src/services/python.service.js -->
<g id="node16" class="node">
<title>src/services/python.service.js</title>
<g id="a_node16"><a xlink:href="src/services/python.service.js" xlink:title="no&#45;orphans">
<path fill="#ccffcc" stroke="orange" d="M502,-252C502,-252 429,-252 429,-252 426,-252 423,-249 423,-246 423,-246 423,-240 423,-240 423,-237 426,-234 429,-234 429,-234 502,-234 502,-234 505,-234 508,-237 508,-240 508,-240 508,-246 508,-246 508,-249 505,-252 502,-252"/>
<text text-anchor="start" x="431" y="-240.8" font-family="Helvetica,sans-Serif" font-size="9.00" fill="orange">python.service.js</text>
</a>
</g>
</g>
<!-- src/utils/importTransactions.js -->
<g id="node17" class="node">
<title>src/utils/importTransactions.js</title>
<g id="a_node17"><a xlink:href="src/utils/importTransactions.js" xlink:title="importTransactions.js">
<path fill="#ffffcc" stroke="black" d="M622,-132C622,-132 530,-132 530,-132 527,-132 524,-129 524,-126 524,-126 524,-120 524,-120 524,-117 527,-114 530,-114 530,-114 622,-114 622,-114 625,-114 628,-117 628,-120 628,-120 628,-126 628,-126 628,-129 625,-132 622,-132"/>
<text text-anchor="start" x="532" y="-120.8" font-family="Helvetica,sans-Serif" font-size="9.00">importTransactions.js</text>
</a>
</g>
</g>
<!-- src/utils/importTransactions.js&#45;&gt;src/models/ledgerEntry.model.js -->
<g id="edge16" class="edge">
<title>src/utils/importTransactions.js&#45;&gt;src/models/ledgerEntry.model.js</title>
<path fill="none" stroke="#000000" stroke-width="2" stroke-opacity="0.200000" d="M598.27,-113.93C608.16,-109.59 620.02,-104.22 630.5,-99 645.51,-91.52 662.05,-82.42 674.76,-75.24"/>
<polygon fill="#000000" fill-opacity="0.200000" stroke="#000000" stroke-width="2" stroke-opacity="0.200000" points="676.13,-76.88 680.31,-72.09 674.05,-73.23 676.13,-76.88"/>
</g>
<!-- src/utils/importTransactions.js&#45;&gt;src/models/wallet.model.js -->
<g id="edge17" class="edge">
<title>src/utils/importTransactions.js&#45;&gt;src/models/wallet.model.js</title>
<path fill="none" stroke="#000000" stroke-width="2" stroke-opacity="0.200000" d="M595.6,-113.95C607.37,-107.27 621.94,-97.08 630.5,-84 639.48,-70.29 627.12,-59.8 638.5,-48 642.44,-43.91 647.35,-40.88 652.63,-38.66"/>
<polygon fill="#000000" fill-opacity="0.200000" stroke="#000000" stroke-width="2" stroke-opacity="0.200000" points="653.54,-40.56 658.47,-36.54 652.11,-36.61 653.54,-40.56"/>
</g>
<!-- src/utils/importTransactions.js&#45;&gt;src/services/goldrush.service.js -->
<g id="edge18" class="edge">
<title>src/utils/importTransactions.js&#45;&gt;src/services/goldrush.service.js</title>
<path fill="none" stroke="#000000" stroke-width="2" stroke-opacity="0.200000" d="M523.89,-129.6C518.33,-132.88 513.97,-137.51 512,-144 507.43,-159.1 507.43,-199.9 512,-215 512.93,-218.07 513.48,-219.02 516,-221 521.34,-225.2 527.56,-228.66 533.93,-231.48"/>
<polygon fill="#000000" fill-opacity="0.200000" stroke="#000000" stroke-width="2" stroke-opacity="0.200000" points="533.46,-233.55 539.8,-233.89 535.05,-229.67 533.46,-233.55"/>
</g>
<!-- src/utils/importTransactions.js&#45;&gt;src/utils/retry.js -->
<g id="edge20" class="edge">
<title>src/utils/importTransactions.js&#45;&gt;src/utils/retry.js</title>
<path fill="none" stroke="#000000" stroke-width="2" stroke-opacity="0.200000" d="M628.16,-129.45C640.16,-130.96 652.63,-132.53 663.56,-133.91"/>
<polygon fill="#000000" fill-opacity="0.200000" stroke="#000000" stroke-width="2" stroke-opacity="0.200000" points="663.58,-136.03 669.79,-134.7 664.1,-131.86 663.58,-136.03"/>
</g>
<!-- src/utils/importTransactions.js&#45;&gt;src/utils/units.js -->
<g id="edge21" class="edge">
<title>src/utils/importTransactions.js&#45;&gt;src/utils/units.js</title>
<path fill="none" stroke="#000000" stroke-width="2" stroke-opacity="0.200000" d="M621.1,-132.11C624.46,-133.76 627.64,-135.7 630.5,-138 636.39,-142.73 632.84,-148 638.5,-153 645.73,-159.38 655.01,-164 663.99,-167.3"/>
<polygon fill="#000000" fill-opacity="0.200000" stroke="#000000" stroke-width="2" stroke-opacity="0.200000" points="663.47,-169.34 669.83,-169.29 664.82,-165.37 663.47,-169.34"/>
</g>
<!-- src/utils/importTransactions.js&#45;&gt;src/services/tatum.service.js -->
<g id="edge19" class="edge">
<title>src/utils/importTransactions.js&#45;&gt;src/services/tatum.service.js</title>
<path fill="none" stroke="#000000" stroke-width="2" stroke-opacity="0.200000" d="M523.89,-129.6C518.33,-132.88 513.97,-137.51 512,-144 508.52,-155.49 508.52,-240.51 512,-252 514.62,-260.64 521.47,-265.98 529.77,-269.22"/>
<polygon fill="#000000" fill-opacity="0.200000" stroke="#000000" stroke-width="2" stroke-opacity="0.200000" points="529.36,-271.29 535.72,-271.15 530.66,-267.3 529.36,-271.29"/>
</g>
</g>
</svg>
