<svg xmlns="http://www.w3.org/2000/svg" width="1200" height="700" viewBox="0 0 1200 700">
<rect x="0" y="0" width="100%" height="100%" fill="#ffffff"/>
<text x="600.0" y="28" text-anchor="middle" font-family="Arial, sans-serif" font-size="18" fill="#111">Sprint Burndown</text>
<line x1="70" y1="640.0" x2="1180" y2="640.0" stroke="#e6e6e6" stroke-width="1"/>
<text x="60" y="644.0" text-anchor="end" font-family="Arial, sans-serif" font-size="10" fill="#444">0</text>
<line x1="70" y1="492.5" x2="1180" y2="492.5" stroke="#e6e6e6" stroke-width="1"/>
<text x="60" y="496.5" text-anchor="end" font-family="Arial, sans-serif" font-size="10" fill="#444">6</text>
<line x1="70" y1="345.0" x2="1180" y2="345.0" stroke="#e6e6e6" stroke-width="1"/>
<text x="60" y="349.0" text-anchor="end" font-family="Arial, sans-serif" font-size="10" fill="#444">11</text>
<line x1="70" y1="197.5" x2="1180" y2="197.5" stroke="#e6e6e6" stroke-width="1"/>
<text x="60" y="201.5" text-anchor="end" font-family="Arial, sans-serif" font-size="10" fill="#444">16</text>
<line x1="70" y1="50.0" x2="1180" y2="50.0" stroke="#e6e6e6" stroke-width="1"/>
<text x="60" y="54.0" text-anchor="end" font-family="Arial, sans-serif" font-size="10" fill="#444">22</text>
<line x1="70.0" y1="640" x2="70.0" y2="646" stroke="#666" stroke-width="1"/>
<text x="70.0" y="662" text-anchor="middle" font-family="Arial, sans-serif" font-size="10" fill="#444">2026-03-23</text>
<line x1="271.8" y1="640" x2="271.8" y2="646" stroke="#666" stroke-width="1"/>
<text x="271.8" y="662" text-anchor="middle" font-family="Arial, sans-serif" font-size="10" fill="#444">2026-03-25</text>
<line x1="473.6" y1="640" x2="473.6" y2="646" stroke="#666" stroke-width="1"/>
<text x="473.6" y="662" text-anchor="middle" font-family="Arial, sans-serif" font-size="10" fill="#444">2026-03-27</text>
<line x1="675.5" y1="640" x2="675.5" y2="646" stroke="#666" stroke-width="1"/>
<text x="675.5" y="662" text-anchor="middle" font-family="Arial, sans-serif" font-size="10" fill="#444">2026-03-29</text>
<line x1="877.3" y1="640" x2="877.3" y2="646" stroke="#666" stroke-width="1"/>
<text x="877.3" y="662" text-anchor="middle" font-family="Arial, sans-serif" font-size="10" fill="#444">2026-03-31</text>
<line x1="1079.1" y1="640" x2="1079.1" y2="646" stroke="#666" stroke-width="1"/>
<text x="1079.1" y="662" text-anchor="middle" font-family="Arial, sans-serif" font-size="10" fill="#444">2026-04-02</text>
<line x1="70" y1="50" x2="70" y2="640" stroke="#666" stroke-width="1.2"/>
<line x1="70" y1="640" x2="1180" y2="640" stroke="#666" stroke-width="1.2"/>
<line x1="70.0" y1="50.0" x2="1180.0" y2="640.0" stroke="#999" stroke-width="2" stroke-dasharray="6,6"/>
<polyline points="70.0,50.0 170.9,50.0 271.8,50.0 372.7,50.0 473.6,76.8 574.5,76.8 675.5,103.6 776.4,130.5 877.3,157.3 978.2,210.9 1079.1,264.5 1180.0,264.5" fill="none" stroke="#4E79A7" stroke-width="2.5" stroke-linejoin="round" stroke-linecap="round"/>
<circle cx="70.0" cy="50.0" r="3" fill="#4E79A7" stroke="#ffffff" stroke-width="1"/>
<circle cx="170.9" cy="50.0" r="3" fill="#4E79A7" stroke="#ffffff" stroke-width="1"/>
<circle cx="271.8" cy="50.0" r="3" fill="#4E79A7" stroke="#ffffff" stroke-width="1"/>
<circle cx="372.7" cy="50.0" r="3" fill="#4E79A7" stroke="#ffffff" stroke-width="1"/>
<circle cx="473.6" cy="76.8" r="3" fill="#4E79A7" stroke="#ffffff" stroke-width="1"/>
<circle cx="574.5" cy="76.8" r="3" fill="#4E79A7" stroke="#ffffff" stroke-width="1"/>
<circle cx="675.5" cy="103.6" r="3" fill="#4E79A7" stroke="#ffffff" stroke-width="1"/>
<circle cx="776.4" cy="130.5" r="3" fill="#4E79A7" stroke="#ffffff" stroke-width="1"/>
<circle cx="877.3" cy="157.3" r="3" fill="#4E79A7" stroke="#ffffff" stroke-width="1"/>
<circle cx="978.2" cy="210.9" r="3" fill="#4E79A7" stroke="#ffffff" stroke-width="1"/>
<circle cx="1079.1" cy="264.5" r="3" fill="#4E79A7" stroke="#ffffff" stroke-width="1"/>
<circle cx="1180.0" cy="264.5" r="3" fill="#4E79A7" stroke="#ffffff" stroke-width="1"/>
<g font-family="Arial, sans-serif" font-size="11" fill="#111">
<line x1="1030" y1="52" x2="1050" y2="52" stroke="#4E79A7" stroke-width="3"/>
<text x="1058" y="56" text-anchor="start">Remaining</text>
<line x1="1030" y1="70" x2="1050" y2="70" stroke="#999" stroke-width="3" stroke-dasharray="6,6"/>
<text x="1058" y="74" text-anchor="start">Ideal</text>
</g>
</svg>