<svg xmlns="http://www.w3.org/2000/svg" width="1200" height="700" viewBox="0 0 1200 700">
<rect x="0" y="0" width="100%" height="100%" fill="#ffffff"/>
<text x="600.0" y="28" text-anchor="middle" font-family="Arial, sans-serif" font-size="18" fill="#111">Cumulative Flow Diagram</text>
<line x1="70" y1="640.0" x2="1180" y2="640.0" stroke="#e6e6e6" stroke-width="1"/>
<text x="60" y="644.0" text-anchor="end" font-family="Arial, sans-serif" font-size="10" fill="#444">0</text>
<line x1="70" y1="492.5" x2="1180" y2="492.5" stroke="#e6e6e6" stroke-width="1"/>
<text x="60" y="496.5" text-anchor="end" font-family="Arial, sans-serif" font-size="10" fill="#444">6</text>
<line x1="70" y1="345.0" x2="1180" y2="345.0" stroke="#e6e6e6" stroke-width="1"/>
<text x="60" y="349.0" text-anchor="end" font-family="Arial, sans-serif" font-size="10" fill="#444">11</text>
<line x1="70" y1="197.5" x2="1180" y2="197.5" stroke="#e6e6e6" stroke-width="1"/>
<text x="60" y="201.5" text-anchor="end" font-family="Arial, sans-serif" font-size="10" fill="#444">16</text>
<line x1="70" y1="50.0" x2="1180" y2="50.0" stroke="#e6e6e6" stroke-width="1"/>
<text x="60" y="54.0" text-anchor="end" font-family="Arial, sans-serif" font-size="10" fill="#444">22</text>
<line x1="70.0" y1="640" x2="70.0" y2="646" stroke="#666" stroke-width="1"/>
<text x="70.0" y="662" text-anchor="middle" font-family="Arial, sans-serif" font-size="10" fill="#444">2026-03-23</text>
<line x1="271.8" y1="640" x2="271.8" y2="646" stroke="#666" stroke-width="1"/>
<text x="271.8" y="662" text-anchor="middle" font-family="Arial, sans-serif" font-size="10" fill="#444">2026-03-25</text>
<line x1="473.6" y1="640" x2="473.6" y2="646" stroke="#666" stroke-width="1"/>
<text x="473.6" y="662" text-anchor="middle" font-family="Arial, sans-serif" font-size="10" fill="#444">2026-03-27</text>
<line x1="675.5" y1="640" x2="675.5" y2="646" stroke="#666" stroke-width="1"/>
<text x="675.5" y="662" text-anchor="middle" font-family="Arial, sans-serif" font-size="10" fill="#444">2026-03-29</text>
<line x1="877.3" y1="640" x2="877.3" y2="646" stroke="#666" stroke-width="1"/>
<text x="877.3" y="662" text-anchor="middle" font-family="Arial, sans-serif" font-size="10" fill="#444">2026-03-31</text>
<line x1="1079.1" y1="640" x2="1079.1" y2="646" stroke="#666" stroke-width="1"/>
<text x="1079.1" y="662" text-anchor="middle" font-family="Arial, sans-serif" font-size="10" fill="#444">2026-04-02</text>
<line x1="70" y1="50" x2="70" y2="640" stroke="#666" stroke-width="1.2"/>
<line x1="70" y1="640" x2="1180" y2="640" stroke="#666" stroke-width="1.2"/>
<polygon points="70.0,103.6 170.9,130.5 271.8,157.3 372.7,184.1 473.6,210.9 574.5,237.7 675.5,264.5 776.4,318.2 877.3,345.0 978.2,398.6 1079.1,425.5 1180.0,452.3 1180.0,640.0 1079.1,640.0 978.2,640.0 877.3,640.0 776.4,640.0 675.5,640.0 574.5,640.0 473.6,640.0 372.7,640.0 271.8,640.0 170.9,640.0 70.0,640.0" fill="#4E79A7" fill-opacity="0.85" stroke="#ffffff" stroke-width="1"/>
<polygon points="70.0,50.0 170.9,50.0 271.8,76.8 372.7,76.8 473.6,103.6 574.5,130.5 675.5,157.3 776.4,184.1 877.3,210.9 978.2,264.5 1079.1,318.2 1180.0,345.0 1180.0,452.3 1079.1,425.5 978.2,398.6 877.3,345.0 776.4,318.2 675.5,264.5 574.5,237.7 473.6,210.9 372.7,184.1 271.8,157.3 170.9,130.5 70.0,103.6" fill="#F28E2B" fill-opacity="0.85" stroke="#ffffff" stroke-width="1"/>
<polygon points="70.0,50.0 170.9,50.0 271.8,50.0 372.7,50.0 473.6,76.8 574.5,76.8 675.5,103.6 776.4,130.5 877.3,157.3 978.2,210.9 1079.1,264.5 1180.0,264.5 1180.0,345.0 1079.1,318.2 978.2,264.5 877.3,210.9 776.4,184.1 675.5,157.3 574.5,130.5 473.6,103.6 372.7,76.8 271.8,76.8 170.9,50.0 70.0,50.0" fill="#E15759" fill-opacity="0.85" stroke="#ffffff" stroke-width="1"/>
<polygon points="70.0,50.0 170.9,50.0 271.8,50.0 372.7,50.0 473.6,50.0 574.5,50.0 675.5,50.0 776.4,50.0 877.3,50.0 978.2,50.0 1079.1,50.0 1180.0,50.0 1180.0,264.5 1079.1,264.5 978.2,210.9 877.3,157.3 776.4,130.5 675.5,103.6 574.5,76.8 473.6,76.8 372.7,50.0 271.8,50.0 170.9,50.0 70.0,50.0" fill="#76B7B2" fill-opacity="0.85" stroke="#ffffff" stroke-width="1"/>
<g font-family="Arial, sans-serif" font-size="11" fill="#111">
<rect x="1030" y="48" width="12" height="12" fill="#76B7B2" fill-opacity="0.85" stroke="#fff" stroke-width="1"/>
<text x="1048" y="58" text-anchor="start">Done</text>
<rect x="1030" y="66" width="12" height="12" fill="#E15759" fill-opacity="0.85" stroke="#fff" stroke-width="1"/>
<text x="1048" y="76" text-anchor="start">Review</text>
<rect x="1030" y="84" width="12" height="12" fill="#F28E2B" fill-opacity="0.85" stroke="#fff" stroke-width="1"/>
<text x="1048" y="94" text-anchor="start">In Progress</text>
<rect x="1030" y="102" width="12" height="12" fill="#4E79A7" fill-opacity="0.85" stroke="#fff" stroke-width="1"/>
<text x="1048" y="112" text-anchor="start">Backlog</text>
</g>
</svg>